<svg xmlns="http://www.w3.org/2000/svg" version="1.1" xmlns:xlink="http://www.w3.org/1999/xlink" xmlns:svgjs="http://svgjs.dev/svgjs" width="2000" height="944" viewBox="0 0 2000 944"><g transform="matrix(1,0,0,1,-1.2121212121212466,-0.29735146246895283)"><svg viewBox="0 0 396 187" data-background-color="#ffffff" preserveAspectRatio="xMidYMid meet" height="944" width="2000" xmlns="http://www.w3.org/2000/svg" xmlns:xlink="http://www.w3.org/1999/xlink"><g id="tight-bounds" transform="matrix(1,0,0,1,0.2400000000000091,0.05890330877298311)"><svg viewBox="0 0 395.52 186.88219338245403" height="186.88219338245403" width="395.52"><g><svg viewBox="0 0 397.4975999999999 187.8166043493663" height="186.88219338245403" width="395.52"><g><rect width="397.4975999999999" height="5.494667869291964" x="0" y="107.00868123585695" fill="#05306c" opacity="1" stroke-width="0" stroke="transparent" fill-opacity="1" class="rect-yte-0" data-fill-palette-color="primary" rx="1%" id="yte-0" data-palette-color="#05306c"></rect></g><g transform="matrix(1,0,0,1,0.9887999999999693,126.88729640696033)"><svg viewBox="0 0 395.52 60.92930794240594" height="60.92930794240594" width="395.52"><g id="textblocktransform"><svg viewBox="0 0 395.52 60.92930794240594" height="60.92930794240594" width="395.52" id="textblock"><g><svg viewBox="0 0 395.52 60.92930794240594" height="60.92930794240594" width="395.52"><g transform="matrix(1,0,0,1,0,0)"><svg width="395.52" viewBox="0.7 -38.9 322.93 49.75" height="60.92930794240594" data-palette-color="#05306c"><path d="M38.3-38.9L38.3-26.8 29.7-26.8 29.7-30.7 26.5-30.7 26.5-8.2 30-8.2 30 0 9 0 9-8.2 12.5-8.2 12.5-30.7 9.3-30.7 9.3-26.8 0.7-26.8 0.7-38.9 38.3-38.9ZM70.6-8.2L72.8-8.2 72.8 0 59.1 0 59.1-3.9Q55.5 0.7 50.1 0.7L50.1 0.7Q45.95 0.7 43.87-1.9 41.8-4.5 41.8-9.05L41.8-9.05 41.8-19.6 39.6-19.6 39.6-27.8 53.3-27.8 53.3-11.4Q53.3-9.75 54.02-8.97 54.75-8.2 56.2-8.2L56.2-8.2Q57.65-8.2 58.37-8.97 59.1-9.75 59.1-11.4L59.1-11.4 59.1-19.6 56.4-19.6 56.4-27.8 70.6-27.8 70.6-8.2ZM86.55 0.7Q81.25 0.7 78.57-1.88 75.9-4.45 75.9-10.55L75.9-10.55 75.9-19.6 73.7-19.6 73.7-27.8Q75.6-27.8 76.55-28.78 77.5-29.75 77.5-31.45L77.5-31.45 77.5-33.7 88.1-33.7 88.1-27.8 94.85-27.8 94.85-19.6 88.1-19.6 88.1-11.4Q88.1-9.75 88.82-8.97 89.55-8.2 91-8.2L91-8.2Q92.9-8.2 95.15-8.65L95.15-8.65 95.15-0.8Q93.75-0.25 91.37 0.23 89 0.7 86.55 0.7L86.55 0.7ZM111.64 0.7Q104.54 0.7 100.54-3.03 96.54-6.75 96.54-13.9L96.54-13.9Q96.54-21.05 100.54-24.78 104.54-28.5 111.64-28.5L111.64-28.5Q118.84-28.5 122.79-24.73 126.74-20.95 126.74-13.9L126.74-13.9Q126.74-6.75 122.74-3.03 118.74 0.7 111.64 0.7L111.64 0.7ZM111.64-8.2Q113.09-8.2 113.82-8.97 114.54-9.75 114.54-11.4L114.54-11.4 114.54-16.4Q114.54-18.05 113.82-18.82 113.09-19.6 111.64-19.6L111.64-19.6Q110.19-19.6 109.47-18.82 108.74-18.05 108.74-16.4L108.74-16.4 108.74-11.4Q108.74-9.75 109.47-8.97 110.19-8.2 111.64-8.2L111.64-8.2ZM149.69-28.5Q150.69-28.5 151.59-28.3 152.49-28.1 153.09-27.8L153.09-27.8 153.09-18.25Q151.04-19.1 148.69-19.1L148.69-19.1Q145.54-19.1 143.84-17.45 142.14-15.8 142.14-12.55L142.14-12.55 142.14-8.2 146.64-8.2 146.64 0 128.44 0 128.44-8.2 130.64-8.2 130.64-19.6 128.44-19.6 128.44-27.8 142.14-27.8 142.14-24.15Q143.54-26.25 145.34-27.38 147.14-28.5 149.69-28.5L149.69-28.5ZM154.79 0L154.79-8.2 157.29-8.2 157.29-30.7 154.79-30.7 154.79-38.9 177.74-38.9Q183.99-38.9 187.49-36.35 190.99-33.8 190.99-29.05L190.99-29.05Q190.99-26.1 189.59-24.08 188.19-22.05 186.31-21.03 184.44-20 182.69-19.65L182.69-19.65 182.69-19.15Q186.24-18.8 189.09-16.9 191.94-15 191.94-10.1L191.94-10.1Q191.94-4.85 187.99-2.43 184.04 0 177.74 0L177.74 0 154.79 0ZM171.29-22.5L173.99-22.5Q175.44-22.5 176.16-23.28 176.89-24.05 176.89-25.7L176.89-25.7 176.89-27.5Q176.89-29.15 176.16-29.93 175.44-30.7 173.99-30.7L173.99-30.7 171.29-30.7 171.29-22.5ZM171.29-8.2L174.34-8.2Q175.79-8.2 176.51-8.97 177.24-9.75 177.24-11.4L177.24-11.4 177.24-13.6Q177.24-15.25 176.51-16.03 175.79-16.8 174.34-16.8L174.34-16.8 171.29-16.8 171.29-8.2ZM224.14-8.2L226.34-8.2 226.34 0 212.64 0 212.64-3.9Q209.04 0.7 203.64 0.7L203.64 0.7Q199.49 0.7 197.41-1.9 195.34-4.5 195.34-9.05L195.34-9.05 195.34-19.6 193.14-19.6 193.14-27.8 206.84-27.8 206.84-11.4Q206.84-9.75 207.56-8.97 208.29-8.2 209.74-8.2L209.74-8.2Q211.19-8.2 211.91-8.97 212.64-9.75 212.64-11.4L212.64-11.4 212.64-19.6 209.94-19.6 209.94-27.8 224.14-27.8 224.14-8.2ZM237.58 0.7Q232.48 0.7 229.91-3.1 227.33-6.9 227.33-13.9L227.33-13.9Q227.33-20.9 229.91-24.7 232.48-28.5 237.58-28.5L237.58-28.5Q240.13-28.5 242.11-27.25 244.08-26 245.33-24.4L245.33-24.4 245.33-30.7 242.38-30.7 242.38-38.9 256.83-38.9 256.83-8.2 259.03-8.2 259.03 0 245.33 0 245.33-3.4Q244.08-1.8 242.11-0.55 240.13 0.7 237.58 0.7L237.58 0.7ZM242.43-8.2Q243.88-8.2 244.61-8.97 245.33-9.75 245.33-11.4L245.33-11.4 245.33-16.4Q245.33-18.05 244.61-18.82 243.88-19.6 242.43-19.6L242.43-19.6Q240.98-19.6 240.26-18.82 239.53-18.05 239.53-16.4L239.53-16.4 239.53-11.4Q239.53-9.75 240.26-8.97 240.98-8.2 242.43-8.2L242.43-8.2ZM270.48 0.7Q265.38 0.7 262.81-3.1 260.23-6.9 260.23-13.9L260.23-13.9Q260.23-20.9 262.81-24.7 265.38-28.5 270.48-28.5L270.48-28.5Q273.03-28.5 275-27.25 276.98-26 278.23-24.4L278.23-24.4 278.23-30.7 275.28-30.7 275.28-38.9 289.73-38.9 289.73-8.2 291.93-8.2 291.93 0 278.23 0 278.23-3.4Q276.98-1.8 275-0.55 273.03 0.7 270.48 0.7L270.48 0.7ZM275.33-8.2Q276.78-8.2 277.5-8.97 278.23-9.75 278.23-11.4L278.23-11.4 278.23-16.4Q278.23-18.05 277.5-18.82 276.78-19.6 275.33-19.6L275.33-19.6Q273.88-19.6 273.16-18.82 272.43-18.05 272.43-16.4L272.43-16.4 272.43-11.4Q272.43-9.75 273.16-8.97 273.88-8.2 275.33-8.2L275.33-8.2ZM309.73-27.8L323.63-27.8 323.63-19.6 321.73-19.6 315.18-2.25Q312.73 4.3 309.58 7.58 306.43 10.85 301.28 10.85L301.28 10.85Q299.18 10.85 297.03 10.43 294.88 10 293.13 9.25L293.13 9.25 293.13 0.2 300.03 0.2 300.03 0.7Q300.03 1.95 301.33 1.95L301.33 1.95Q302.48 1.95 303.08 0.85L303.08 0.85 295.18-19.6 293.28-19.6 293.28-27.8 308.13-27.8 308.13-19.6 306.43-19.6 309.03-11.8 311.43-19.6 309.73-19.6 309.73-27.8Z" opacity="1" transform="matrix(1,0,0,1,0,0)" fill="#05306c" class="wordmark-text-0" data-fill-palette-color="primary" id="text-0"></path></svg></g></svg></g></svg></g></svg></g><g transform="matrix(1,0,0,1,114.63041918234639,0)"><svg viewBox="0 0 168.23676163530715 92.62473393404552" height="92.62473393404552" width="168.23676163530715"><g><svg xmlns="http://www.w3.org/2000/svg" xmlns:xlink="http://www.w3.org/1999/xlink" version="1.1" x="0" y="0" viewBox="1.39 20.99 87.22 48.02000000000001" enable-background="new 0 0 90 90" xml:space="preserve" height="92.62473393404552" width="168.23676163530715" class="icon-icon-0" data-fill-palette-color="accent" id="icon-0"><rect x="1.39" y="45.49" width="23.52" height="23.52" fill="#4b91f1" data-fill-palette-color="accent"></rect><polygon points="43.294,33.24 25.263,44.51 2.604,44.51 20.638,33.24 " fill="#4b91f1" data-fill-palette-color="accent"></polygon><polygon points="64.108,44.727 25.89,68.617 25.89,45.273 64.108,21.382 " fill="#4b91f1" data-fill-palette-color="accent"></polygon><polygon points="64.728,45.49 87.394,45.49 69.36,56.76 46.704,56.76 " fill="#4b91f1" data-fill-palette-color="accent"></polygon><rect x="65.089" y="20.99" width="23.521" height="23.52" fill="#4b91f1" data-fill-palette-color="accent"></rect></svg></g></svg></g><g></g></svg></g><defs></defs></svg><rect width="395.52" height="186.88219338245403" fill="none" stroke="none" visibility="hidden"></rect></g></svg></g></svg>